<mxfile host="app.diagrams.net" modified="2024-06-29T13:01:36.296Z" agent="Mozilla/5.0 (X11; Linux x86_64) AppleWebKit/537.36 (KHTML, like Gecko) Chrome/123.0.0.0 Safari/537.36" etag="jwfSdAIXINPICAsH09kR" version="24.6.4" type="device">
  <diagram name="Page-1" id="iE0h_F90TXYF1HSEsnaa">
    <mxGraphModel dx="811" dy="464" grid="1" gridSize="10" guides="1" tooltips="1" connect="1" arrows="1" fold="1" page="1" pageScale="1" pageWidth="850" pageHeight="1100" math="0" shadow="0">
      <root>
        <mxCell id="0" />
        <mxCell id="1" parent="0" />
        <mxCell id="XHdJxfYMmHIW3Q4Liybd-1" value="[if currentCondition then]&lt;div&gt;sooner-or-later targetCondition&lt;/div&gt;" style="shape=parallelogram;perimeter=parallelogramPerimeter;whiteSpace=wrap;html=1;fixedSize=1;" vertex="1" parent="1">
          <mxGeometry x="180" y="50" width="210" height="50" as="geometry" />
        </mxCell>
        <mxCell id="XHdJxfYMmHIW3Q4Liybd-3" value="" style="edgeStyle=orthogonalEdgeStyle;rounded=0;orthogonalLoop=1;jettySize=auto;html=1;" edge="1" parent="1" source="XHdJxfYMmHIW3Q4Liybd-2" target="XHdJxfYMmHIW3Q4Liybd-1">
          <mxGeometry relative="1" as="geometry" />
        </mxCell>
        <mxCell id="XHdJxfYMmHIW3Q4Liybd-2" value="[currentCondition and]&lt;div&gt;never targetCondition&lt;/div&gt;" style="shape=parallelogram;perimeter=parallelogramPerimeter;whiteSpace=wrap;html=1;fixedSize=1;flipH=1;" vertex="1" parent="1">
          <mxGeometry x="180" y="140" width="210" height="50" as="geometry" />
        </mxCell>
        <mxCell id="XHdJxfYMmHIW3Q4Liybd-4" value="" style="endArrow=none;html=1;rounded=0;" edge="1" parent="1">
          <mxGeometry width="50" height="50" relative="1" as="geometry">
            <mxPoint x="275" y="120" as="sourcePoint" />
            <mxPoint x="295" y="120" as="targetPoint" />
          </mxGeometry>
        </mxCell>
        <mxCell id="XHdJxfYMmHIW3Q4Liybd-10" value="" style="edgeStyle=orthogonalEdgeStyle;rounded=0;orthogonalLoop=1;jettySize=auto;html=1;" edge="1" parent="1" source="XHdJxfYMmHIW3Q4Liybd-5" target="XHdJxfYMmHIW3Q4Liybd-2">
          <mxGeometry relative="1" as="geometry" />
        </mxCell>
        <mxCell id="XHdJxfYMmHIW3Q4Liybd-5" value="&lt;font style=&quot;font-size: 10px;&quot;&gt;if targetCondition&lt;/font&gt;&lt;div style=&quot;font-size: 10px;&quot;&gt;&lt;font style=&quot;font-size: 10px;&quot;&gt;then necessaryCondition&lt;/font&gt;&lt;/div&gt;" style="shape=trapezoid;perimeter=trapezoidPerimeter;whiteSpace=wrap;html=1;fixedSize=1;" vertex="1" parent="1">
          <mxGeometry x="140" y="260" width="130" height="40" as="geometry" />
        </mxCell>
        <mxCell id="XHdJxfYMmHIW3Q4Liybd-9" value="" style="edgeStyle=orthogonalEdgeStyle;rounded=0;orthogonalLoop=1;jettySize=auto;html=1;" edge="1" parent="1" source="XHdJxfYMmHIW3Q4Liybd-6" target="XHdJxfYMmHIW3Q4Liybd-2">
          <mxGeometry relative="1" as="geometry" />
        </mxCell>
        <mxCell id="XHdJxfYMmHIW3Q4Liybd-6" value="[currentCondition and]&lt;div&gt;never&amp;nbsp;&lt;span style=&quot;font-size: 10px; background-color: initial;&quot;&gt;necessaryCondition&lt;/span&gt;&lt;/div&gt;" style="shape=parallelogram;perimeter=parallelogramPerimeter;whiteSpace=wrap;html=1;fixedSize=1;flipH=1;" vertex="1" parent="1">
          <mxGeometry x="285" y="260" width="160" height="40" as="geometry" />
        </mxCell>
        <mxCell id="XHdJxfYMmHIW3Q4Liybd-8" value="" style="edgeStyle=orthogonalEdgeStyle;rounded=0;orthogonalLoop=1;jettySize=auto;html=1;" edge="1" parent="1" source="XHdJxfYMmHIW3Q4Liybd-7" target="XHdJxfYMmHIW3Q4Liybd-2">
          <mxGeometry relative="1" as="geometry" />
        </mxCell>
        <mxCell id="XHdJxfYMmHIW3Q4Liybd-7" value="" style="ellipse;whiteSpace=wrap;html=1;aspect=fixed;" vertex="1" parent="1">
          <mxGeometry x="280" y="220" width="10" height="10" as="geometry" />
        </mxCell>
        <mxCell id="XHdJxfYMmHIW3Q4Liybd-11" value="Achieve goal" style="text;html=1;align=center;verticalAlign=middle;resizable=0;points=[];autosize=1;strokeColor=none;fillColor=none;" vertex="1" parent="1">
          <mxGeometry x="240" y="20" width="90" height="30" as="geometry" />
        </mxCell>
        <mxCell id="XHdJxfYMmHIW3Q4Liybd-12" value="[if currentCondition then]&lt;div&gt;always targetCondition&lt;/div&gt;" style="shape=parallelogram;perimeter=parallelogramPerimeter;whiteSpace=wrap;html=1;fixedSize=1;" vertex="1" parent="1">
          <mxGeometry x="510" y="50" width="210" height="50" as="geometry" />
        </mxCell>
        <mxCell id="XHdJxfYMmHIW3Q4Liybd-13" value="" style="edgeStyle=orthogonalEdgeStyle;rounded=0;orthogonalLoop=1;jettySize=auto;html=1;" edge="1" parent="1" source="XHdJxfYMmHIW3Q4Liybd-14" target="XHdJxfYMmHIW3Q4Liybd-12">
          <mxGeometry relative="1" as="geometry" />
        </mxCell>
        <mxCell id="XHdJxfYMmHIW3Q4Liybd-14" value="[currentCondition and]&lt;div&gt;sooner-or-later not goodCondition&lt;/div&gt;" style="shape=parallelogram;perimeter=parallelogramPerimeter;whiteSpace=wrap;html=1;fixedSize=1;flipH=1;" vertex="1" parent="1">
          <mxGeometry x="510" y="140" width="210" height="50" as="geometry" />
        </mxCell>
        <mxCell id="XHdJxfYMmHIW3Q4Liybd-15" value="" style="endArrow=none;html=1;rounded=0;" edge="1" parent="1">
          <mxGeometry width="50" height="50" relative="1" as="geometry">
            <mxPoint x="605" y="120" as="sourcePoint" />
            <mxPoint x="625" y="120" as="targetPoint" />
          </mxGeometry>
        </mxCell>
        <mxCell id="XHdJxfYMmHIW3Q4Liybd-16" value="" style="edgeStyle=orthogonalEdgeStyle;rounded=0;orthogonalLoop=1;jettySize=auto;html=1;" edge="1" parent="1" source="XHdJxfYMmHIW3Q4Liybd-17" target="XHdJxfYMmHIW3Q4Liybd-14">
          <mxGeometry relative="1" as="geometry" />
        </mxCell>
        <mxCell id="XHdJxfYMmHIW3Q4Liybd-17" value="&lt;span style=&quot;font-size: 10px;&quot;&gt;if goodCondition&lt;/span&gt;&lt;div&gt;&lt;span style=&quot;font-size: 10px;&quot;&gt;then necessaryCondition&lt;/span&gt;&lt;/div&gt;" style="shape=trapezoid;perimeter=trapezoidPerimeter;whiteSpace=wrap;html=1;fixedSize=1;" vertex="1" parent="1">
          <mxGeometry x="470" y="260" width="130" height="40" as="geometry" />
        </mxCell>
        <mxCell id="XHdJxfYMmHIW3Q4Liybd-18" value="" style="edgeStyle=orthogonalEdgeStyle;rounded=0;orthogonalLoop=1;jettySize=auto;html=1;" edge="1" parent="1" source="XHdJxfYMmHIW3Q4Liybd-19" target="XHdJxfYMmHIW3Q4Liybd-14">
          <mxGeometry relative="1" as="geometry" />
        </mxCell>
        <mxCell id="XHdJxfYMmHIW3Q4Liybd-19" value="&lt;font style=&quot;font-size: 10px;&quot;&gt;[currentCondition and]&lt;/font&gt;&lt;div style=&quot;font-size: 10px;&quot;&gt;&lt;font style=&quot;font-size: 10px;&quot;&gt;sooner-or-later not necessaryCondition&lt;/font&gt;&lt;/div&gt;" style="shape=parallelogram;perimeter=parallelogramPerimeter;whiteSpace=wrap;html=1;fixedSize=1;flipH=1;" vertex="1" parent="1">
          <mxGeometry x="615" y="260" width="160" height="40" as="geometry" />
        </mxCell>
        <mxCell id="XHdJxfYMmHIW3Q4Liybd-20" value="" style="edgeStyle=orthogonalEdgeStyle;rounded=0;orthogonalLoop=1;jettySize=auto;html=1;" edge="1" parent="1" source="XHdJxfYMmHIW3Q4Liybd-21" target="XHdJxfYMmHIW3Q4Liybd-14">
          <mxGeometry relative="1" as="geometry" />
        </mxCell>
        <mxCell id="XHdJxfYMmHIW3Q4Liybd-21" value="" style="ellipse;whiteSpace=wrap;html=1;aspect=fixed;" vertex="1" parent="1">
          <mxGeometry x="610" y="220" width="10" height="10" as="geometry" />
        </mxCell>
        <mxCell id="XHdJxfYMmHIW3Q4Liybd-22" value="Maintain goal" style="text;html=1;align=center;verticalAlign=middle;resizable=0;points=[];autosize=1;strokeColor=none;fillColor=none;" vertex="1" parent="1">
          <mxGeometry x="570" y="20" width="90" height="30" as="geometry" />
        </mxCell>
      </root>
    </mxGraphModel>
  </diagram>
</mxfile>
